<?xml version="1.0" encoding="UTF-8"?>
<svg id="Camada_2" data-name="Camada 2" xmlns="http://www.w3.org/2000/svg" viewBox="0 0 495.92 826.93">
  <defs>
    <style>
      .cls-1 {
        fill: #fff;
      }
    </style>
  </defs>
  <g id="Camada_1-2" data-name="Camada 1">
    <path class="cls-1" d="M447.11,426.02s.07.04.07.04c104.9-352.35,10.65-399.6-7.93-405.36-68.97-40.68-155.4-12.21-183.75,7.55C155.78,97.76,124.35,347.35,115.38,453.15,50.45,474.95,4.69,556.82,3.12,644.34c-.46,2.6-.86,5.19-1.18,7.77l-.03.23c-8.3,60.6,9.72,141.65,69.32,165.98,6.97,2.55,14.07,3.76,21.15,3.74,82.32,29.54,194.84-80.39,194.84-192.81,0-87.11-37.04-152.45-93.7-173.21,13.78-119.99,52.45-346.41,152.03-416.92.83-.25,45.49-17.11,71.1,20.87,8.81,13.07,13.99,40.51,14.4,84.68.57,60.91-14,149.29-50.64,272.37.58-.1,1.15-.19,1.73-.28-47.93,10.46-87.13,52.6-104.91,119.74-.11.42-.22.84-.33,1.26,0,0,38.91,51.38,10.57,156.58-.13.48.6.8.92,1.2,12.34,15.78,35.07,29.32,55.05,31.23,64.67,6.2,124.81-43.32,145.63-139.01,15.89-73.03-2.08-136.38-41.95-161.75ZM224.26,657.51c0,82.92-70.9,172.91-129.55,164.48,10.91-.43,21.71-3.72,31.82-9.41,40.84-24.21,62.8-71.24,71.24-119.1,4.93-30.36,3.42-62.73-7.15-91.57-12.98-37.72-47.35-82.13-88.04-79.86-53.04,2.6-87.83,66.65-98.48,117.31,9.38-73.05,47.83-127.22,99.75-136.72,64-11.71,120.42,57.17,120.42,154.87ZM433.45,587.63c-14.58,52.73-53.72,87.93-87.43,78.61s-49.21-59.62-34.64-112.35c14.58-52.73,53.72-87.93,87.43-78.61s49.21,59.62,34.64,112.35Z"/>
  </g>
</svg>